<svg width="256" height="256" viewBox="0 0 512 512" xmlns="http://www.w3.org/2000/svg" role="img" aria-label="OnePay favicon">
  <defs>
    <linearGradient id="op-fav" x1="0%" y1="0%" x2="100%" y2="100%">
      <stop offset="0%" stop-color="#4db9ff"/>
      <stop offset="100%" stop-color="#1d9bf0"/>
    </linearGradient>
  </defs>
  <circle cx="256" cy="256" r="232" fill="url(#op-fav)"/>
  <path d="M164 324c0-6.6 5.4-12 12-12h36c6.6 0 12 5.4 12 12v52c0 6.6-5.4 12-12 12h-36c-6.6 0-12-5.4-12-12v-52zm76-96c0-6.6 5.4-12 12-12h36c6.6 0 12 5.4 12 12v148c0 6.6-5.4 12-12 12h-36c-6.6 0-12-5.4-12-12V228zm76-68c0-6.6 5.4-12 12-12h36c6.6 0 12 5.4 12 12v216c0 6.6-5.4 12-12 12h-36c-6.6 0-12-5.4-12-12V160z" fill="#fff" opacity=".92"/>
  <path d="M164 308l89.9-89.9a12 12 0 0 1 17 0l39.5 39.5 70.5-70.5a12 12 0 0 1 20.5 8.5v70.6a12 12 0 0 1-12 12h-70.6a12 12 0 0 1-8.5-20.5l9.1-9.1-30.9-30.9-78.4 78.4a12 12 0 0 1-8.5 3.5H176a12 12 0 0 1-12-12z" fill="#fff"/>
</svg>
